<mxfile host="app.diagrams.net" agent="Mozilla/5.0 (Macintosh; Intel Mac OS X 10_15_7) AppleWebKit/537.36 (KHTML, like Gecko) Chrome/130.0.0.0 Safari/537.36 Edg/130.0.0.0" version="26.1.3">
  <diagram name="第 1 页" id="_FOo4lyNsMRpVrWsMuHX">
    <mxGraphModel dx="1386" dy="771" grid="1" gridSize="10" guides="1" tooltips="1" connect="1" arrows="1" fold="1" page="1" pageScale="1" pageWidth="850" pageHeight="1100" math="0" shadow="0">
      <root>
        <mxCell id="0" />
        <mxCell id="1" parent="0" />
        <mxCell id="TUzP5ITbhwqZ_lWHzmED-1" value="统一用户中心" style="shape=umlLifeline;perimeter=lifelinePerimeter;whiteSpace=wrap;container=1;dropTarget=0;collapsible=0;recursiveResize=0;outlineConnect=0;portConstraint=eastwest;newEdgeStyle={&quot;edgeStyle&quot;:&quot;elbowEdgeStyle&quot;,&quot;elbow&quot;:&quot;vertical&quot;,&quot;curved&quot;:0,&quot;rounded&quot;:0};size=65;" vertex="1" parent="1">
          <mxGeometry x="20" y="20" width="150" height="1658" as="geometry" />
        </mxCell>
        <mxCell id="TUzP5ITbhwqZ_lWHzmED-2" value="后端服务" style="shape=umlLifeline;perimeter=lifelinePerimeter;whiteSpace=wrap;container=1;dropTarget=0;collapsible=0;recursiveResize=0;outlineConnect=0;portConstraint=eastwest;newEdgeStyle={&quot;edgeStyle&quot;:&quot;elbowEdgeStyle&quot;,&quot;elbow&quot;:&quot;vertical&quot;,&quot;curved&quot;:0,&quot;rounded&quot;:0};size=65;" vertex="1" parent="1">
          <mxGeometry x="246" y="20" width="150" height="1658" as="geometry" />
        </mxCell>
        <mxCell id="TUzP5ITbhwqZ_lWHzmED-5" value="数据库" style="shape=umlLifeline;perimeter=lifelinePerimeter;whiteSpace=wrap;container=1;dropTarget=0;collapsible=0;recursiveResize=0;outlineConnect=0;portConstraint=eastwest;newEdgeStyle={&quot;edgeStyle&quot;:&quot;elbowEdgeStyle&quot;,&quot;elbow&quot;:&quot;vertical&quot;,&quot;curved&quot;:0,&quot;rounded&quot;:0};size=65;" vertex="1" parent="1">
          <mxGeometry x="990" y="20" width="150" height="1658" as="geometry" />
        </mxCell>
        <mxCell id="TUzP5ITbhwqZ_lWHzmED-6" value="alt" style="shape=umlFrame;dashed=1;pointerEvents=0;dropTarget=0;strokeColor=#B3B3B3;height=20;width=30" vertex="1" parent="1">
          <mxGeometry x="520" y="971" width="506" height="228" as="geometry" />
        </mxCell>
        <mxCell id="TUzP5ITbhwqZ_lWHzmED-7" value="[管理员账号已存在]" style="text;strokeColor=none;fillColor=none;align=center;verticalAlign=middle;whiteSpace=wrap;" vertex="1" parent="TUzP5ITbhwqZ_lWHzmED-6">
          <mxGeometry x="30" width="476" height="20" as="geometry" />
        </mxCell>
        <mxCell id="TUzP5ITbhwqZ_lWHzmED-8" value="[管理员账号不存在]" style="shape=line;dashed=1;whiteSpace=wrap;verticalAlign=top;labelPosition=center;verticalLabelPosition=middle;align=center;strokeColor=#B3B3B3;" vertex="1" parent="TUzP5ITbhwqZ_lWHzmED-6">
          <mxGeometry y="96" width="506" height="4" as="geometry" />
        </mxCell>
        <mxCell id="TUzP5ITbhwqZ_lWHzmED-9" value="alt" style="shape=umlFrame;dashed=1;pointerEvents=0;dropTarget=0;strokeColor=#B3B3B3;height=20;width=30" vertex="1" parent="1">
          <mxGeometry x="84" y="187" width="966" height="1396" as="geometry" />
        </mxCell>
        <mxCell id="TUzP5ITbhwqZ_lWHzmED-10" value="[租户已存在]" style="text;strokeColor=none;fillColor=none;align=center;verticalAlign=middle;whiteSpace=wrap;" vertex="1" parent="TUzP5ITbhwqZ_lWHzmED-9">
          <mxGeometry x="30" width="936" height="20" as="geometry" />
        </mxCell>
        <mxCell id="TUzP5ITbhwqZ_lWHzmED-11" value="[租户不存在]" style="shape=line;dashed=1;whiteSpace=wrap;verticalAlign=top;labelPosition=center;verticalLabelPosition=middle;align=center;strokeColor=#B3B3B3;" vertex="1" parent="TUzP5ITbhwqZ_lWHzmED-9">
          <mxGeometry y="142" width="966" height="4" as="geometry" />
        </mxCell>
        <mxCell id="TUzP5ITbhwqZ_lWHzmED-12" value="发起新增租户请求" style="verticalAlign=bottom;edgeStyle=elbowEdgeStyle;elbow=vertical;curved=0;rounded=0;endArrow=block;" edge="1" parent="1" source="TUzP5ITbhwqZ_lWHzmED-1" target="TUzP5ITbhwqZ_lWHzmED-2">
          <mxGeometry relative="1" as="geometry">
            <Array as="points">
              <mxPoint x="217" y="121" />
            </Array>
          </mxGeometry>
        </mxCell>
        <mxCell id="TUzP5ITbhwqZ_lWHzmED-13" value="检查租户是否存在(租户代码/名称)" style="verticalAlign=bottom;edgeStyle=elbowEdgeStyle;elbow=vertical;curved=0;rounded=0;endArrow=block;" edge="1" parent="1" source="TUzP5ITbhwqZ_lWHzmED-2" target="TUzP5ITbhwqZ_lWHzmED-5">
          <mxGeometry relative="1" as="geometry">
            <Array as="points">
              <mxPoint x="920" y="110" />
            </Array>
          </mxGeometry>
        </mxCell>
        <mxCell id="TUzP5ITbhwqZ_lWHzmED-14" value="返回租户信息" style="verticalAlign=bottom;edgeStyle=elbowEdgeStyle;elbow=vertical;curved=0;rounded=0;dashed=1;dashPattern=2 3;endArrow=block;" edge="1" parent="1" source="TUzP5ITbhwqZ_lWHzmED-5" target="TUzP5ITbhwqZ_lWHzmED-2">
          <mxGeometry relative="1" as="geometry">
            <Array as="points">
              <mxPoint x="680" y="258" />
            </Array>
          </mxGeometry>
        </mxCell>
        <mxCell id="TUzP5ITbhwqZ_lWHzmED-15" value="返回租户已存在错误" style="verticalAlign=bottom;edgeStyle=elbowEdgeStyle;elbow=vertical;curved=0;rounded=0;dashed=1;dashPattern=2 3;endArrow=block;" edge="1" parent="1" source="TUzP5ITbhwqZ_lWHzmED-2" target="TUzP5ITbhwqZ_lWHzmED-1">
          <mxGeometry relative="1" as="geometry">
            <Array as="points">
              <mxPoint x="220" y="304" />
            </Array>
          </mxGeometry>
        </mxCell>
        <mxCell id="TUzP5ITbhwqZ_lWHzmED-16" value="生成租户代码" style="curved=1;endArrow=block;rounded=0;" edge="1" parent="1" source="TUzP5ITbhwqZ_lWHzmED-2" target="TUzP5ITbhwqZ_lWHzmED-2">
          <mxGeometry relative="1" as="geometry">
            <Array as="points">
              <mxPoint x="372" y="395" />
              <mxPoint x="372" y="425" />
            </Array>
          </mxGeometry>
        </mxCell>
        <mxCell id="TUzP5ITbhwqZ_lWHzmED-17" value="写入租户基本信息" style="verticalAlign=bottom;edgeStyle=elbowEdgeStyle;elbow=vertical;curved=0;rounded=0;endArrow=block;" edge="1" parent="1" source="TUzP5ITbhwqZ_lWHzmED-2" target="TUzP5ITbhwqZ_lWHzmED-5">
          <mxGeometry relative="1" as="geometry">
            <Array as="points">
              <mxPoint x="677" y="539" />
            </Array>
          </mxGeometry>
        </mxCell>
        <mxCell id="TUzP5ITbhwqZ_lWHzmED-18" value="租户创建成功(返回tenant_id)" style="verticalAlign=bottom;edgeStyle=elbowEdgeStyle;elbow=vertical;curved=0;rounded=0;dashed=1;dashPattern=2 3;endArrow=block;" edge="1" parent="1" source="TUzP5ITbhwqZ_lWHzmED-5" target="TUzP5ITbhwqZ_lWHzmED-2">
          <mxGeometry relative="1" as="geometry">
            <Array as="points">
              <mxPoint x="680" y="653" />
            </Array>
          </mxGeometry>
        </mxCell>
        <mxCell id="TUzP5ITbhwqZ_lWHzmED-22" value="创建租户管理员账号(使用租户代码+统一初始密码)" style="verticalAlign=bottom;edgeStyle=elbowEdgeStyle;elbow=vertical;curved=0;rounded=0;endArrow=block;" edge="1" parent="1" source="TUzP5ITbhwqZ_lWHzmED-2">
          <mxGeometry relative="1" as="geometry">
            <Array as="points">
              <mxPoint x="435" y="837" />
            </Array>
            <mxPoint x="530.5" y="837" as="targetPoint" />
          </mxGeometry>
        </mxCell>
        <mxCell id="TUzP5ITbhwqZ_lWHzmED-23" value="检查管理员账号是否存在" style="verticalAlign=bottom;edgeStyle=elbowEdgeStyle;elbow=vertical;curved=0;rounded=0;endArrow=block;" edge="1" parent="1" target="TUzP5ITbhwqZ_lWHzmED-5">
          <mxGeometry relative="1" as="geometry">
            <Array as="points">
              <mxPoint x="782" y="951" />
            </Array>
            <mxPoint x="530.5" y="951" as="sourcePoint" />
          </mxGeometry>
        </mxCell>
        <mxCell id="TUzP5ITbhwqZ_lWHzmED-24" value="返回用户信息" style="verticalAlign=bottom;edgeStyle=elbowEdgeStyle;elbow=vertical;curved=0;rounded=0;dashed=1;dashPattern=2 3;endArrow=block;" edge="1" parent="1" source="TUzP5ITbhwqZ_lWHzmED-5">
          <mxGeometry relative="1" as="geometry">
            <Array as="points">
              <mxPoint x="785" y="1042" />
            </Array>
            <mxPoint x="530.5" y="1042" as="targetPoint" />
          </mxGeometry>
        </mxCell>
        <mxCell id="TUzP5ITbhwqZ_lWHzmED-25" value="创建新用户记录" style="verticalAlign=bottom;edgeStyle=elbowEdgeStyle;elbow=vertical;curved=0;rounded=0;endArrow=block;" edge="1" parent="1" target="TUzP5ITbhwqZ_lWHzmED-5">
          <mxGeometry relative="1" as="geometry">
            <Array as="points">
              <mxPoint x="782" y="1133" />
            </Array>
            <mxPoint x="530.5" y="1133" as="sourcePoint" />
          </mxGeometry>
        </mxCell>
        <mxCell id="TUzP5ITbhwqZ_lWHzmED-26" value="用户创建成功" style="verticalAlign=bottom;edgeStyle=elbowEdgeStyle;elbow=vertical;curved=0;rounded=0;dashed=1;dashPattern=2 3;endArrow=block;" edge="1" parent="1" source="TUzP5ITbhwqZ_lWHzmED-5">
          <mxGeometry relative="1" as="geometry">
            <Array as="points">
              <mxPoint x="785" y="1179" />
            </Array>
            <mxPoint x="530.5" y="1179" as="targetPoint" />
          </mxGeometry>
        </mxCell>
        <mxCell id="TUzP5ITbhwqZ_lWHzmED-27" value="关联用户到租户并设置为管理员" style="verticalAlign=bottom;edgeStyle=elbowEdgeStyle;elbow=vertical;curved=0;rounded=0;endArrow=block;" edge="1" parent="1" target="TUzP5ITbhwqZ_lWHzmED-5">
          <mxGeometry relative="1" as="geometry">
            <Array as="points">
              <mxPoint x="782" y="1235" />
            </Array>
            <mxPoint x="530.5" y="1235" as="sourcePoint" />
          </mxGeometry>
        </mxCell>
        <mxCell id="TUzP5ITbhwqZ_lWHzmED-28" value="关联创建成功" style="verticalAlign=bottom;edgeStyle=elbowEdgeStyle;elbow=vertical;curved=0;rounded=0;dashed=1;dashPattern=2 3;endArrow=block;" edge="1" parent="1" source="TUzP5ITbhwqZ_lWHzmED-5">
          <mxGeometry relative="1" as="geometry">
            <Array as="points">
              <mxPoint x="785" y="1281" />
            </Array>
            <mxPoint x="530.5" y="1281" as="targetPoint" />
          </mxGeometry>
        </mxCell>
        <mxCell id="TUzP5ITbhwqZ_lWHzmED-29" value="初始化租户应用配置" style="curved=1;endArrow=block;rounded=0;" edge="1" parent="1" source="TUzP5ITbhwqZ_lWHzmED-2" target="TUzP5ITbhwqZ_lWHzmED-2">
          <mxGeometry relative="1" as="geometry">
            <Array as="points">
              <mxPoint x="372" y="1395" />
              <mxPoint x="372" y="1425" />
            </Array>
          </mxGeometry>
        </mxCell>
        <mxCell id="TUzP5ITbhwqZ_lWHzmED-30" value="创建App端和管理后台配置" style="verticalAlign=bottom;edgeStyle=elbowEdgeStyle;elbow=vertical;curved=0;rounded=0;endArrow=block;" edge="1" parent="1" source="TUzP5ITbhwqZ_lWHzmED-2" target="TUzP5ITbhwqZ_lWHzmED-5">
          <mxGeometry relative="1" as="geometry">
            <Array as="points">
              <mxPoint x="677" y="1471" />
            </Array>
          </mxGeometry>
        </mxCell>
        <mxCell id="TUzP5ITbhwqZ_lWHzmED-31" value="应用配置创建成功" style="verticalAlign=bottom;edgeStyle=elbowEdgeStyle;elbow=vertical;curved=0;rounded=0;dashed=1;dashPattern=2 3;endArrow=block;" edge="1" parent="1" source="TUzP5ITbhwqZ_lWHzmED-5" target="TUzP5ITbhwqZ_lWHzmED-2">
          <mxGeometry relative="1" as="geometry">
            <Array as="points">
              <mxPoint x="680" y="1517" />
            </Array>
          </mxGeometry>
        </mxCell>
        <mxCell id="TUzP5ITbhwqZ_lWHzmED-32" value="返回租户创建成功信息" style="verticalAlign=bottom;edgeStyle=elbowEdgeStyle;elbow=vertical;curved=0;rounded=0;dashed=1;dashPattern=2 3;endArrow=block;" edge="1" parent="1" source="TUzP5ITbhwqZ_lWHzmED-2" target="TUzP5ITbhwqZ_lWHzmED-1">
          <mxGeometry relative="1" as="geometry">
            <Array as="points">
              <mxPoint x="220" y="1563" />
            </Array>
          </mxGeometry>
        </mxCell>
        <mxCell id="TUzP5ITbhwqZ_lWHzmED-33" value="TODO: 租户代码生成规则?" style="fillColor=#ffff88;strokeColor=#9E916F;" vertex="1" parent="1">
          <mxGeometry x="246" y="445" width="151" height="68" as="geometry" />
        </mxCell>
        <mxCell id="TUzP5ITbhwqZ_lWHzmED-34" value="包含租户代码、状态、&#xa;联系人电话等信息" style="fillColor=#ffff88;strokeColor=#9E916F;" vertex="1" parent="1">
          <mxGeometry x="296" y="559" width="744" height="68" as="geometry" />
        </mxCell>
        <mxCell id="TUzP5ITbhwqZ_lWHzmED-35" value="TODO: &#xa;统一初始密码是写死还是可配置?" style="fillColor=#ffff88;strokeColor=#9E916F;" vertex="1" parent="1">
          <mxGeometry x="296" y="857" width="260" height="68" as="geometry" />
        </mxCell>
        <mxCell id="TUzP5ITbhwqZ_lWHzmED-36" value="TODO: 租户菜单权限&#xa;如何管理?" style="fillColor=#ffff88;strokeColor=#9E916F;" vertex="1" parent="1">
          <mxGeometry x="238" y="1301" width="167" height="68" as="geometry" />
        </mxCell>
      </root>
    </mxGraphModel>
  </diagram>
</mxfile>
